<?xml version="1.0" standalone="no"?>
<!DOCTYPE svg PUBLIC "-//W3C//DTD SVG 20010904//EN"
 "http://www.w3.org/TR/2001/REC-SVG-20010904/DTD/svg10.dtd">
<svg version="1.0" xmlns="http://www.w3.org/2000/svg"
 width="60.000000pt" height="60.000000pt" viewBox="0 0 60.000000 60.000000"
 preserveAspectRatio="xMidYMid meet">
<metadata>
Created by potrace 1.16, written by Peter Selinger 2001-2019
</metadata>
<g transform="translate(0.000000,60.000000) scale(0.100000,-0.100000)"
fill="#000000" stroke="none">
<path d="M140 481 c0 -18 60 -188 96 -275 35 -83 37 -86 69 -86 31 0 34 3 65
78 32 76 100 269 100 284 0 4 -15 8 -32 8 l-33 0 -38 -123 c-21 -67 -44 -133
-51 -146 -13 -22 -15 -19 -43 60 -17 46 -39 112 -48 147 -17 60 -19 62 -51 62
-19 0 -34 -4 -34 -9z"/>
</g>
</svg>
